<svg xmlns="http://www.w3.org/2000/svg" xmlns:xlink="http://www.w3.org/1999/xlink" height="176" style="enable-background:new 0 0 176 176" width="176" version="1.1" viewBox="0 0 176 176" xml:space="preserve"><style type="text/css">.st2{fill:#ffc425}.st4{fill:none}</style><path d="M165.4,10.5c0.3,0,0.6,0.3,0.6,0.6v151.8c0,0.3-0.3,0.6-0.6,0.6H13.6c-0.3,0-0.6-0.3-0.6-0.6V11.1c0-0.3,0.3-0.6,0.6-0.6 H165.4L165.4,10.5z"/><polygon points="22.5 20.1 156.4 20.1 156.4 154 22.5 154 22.5 20.1" class="st2"/><path d="M101.5,124.4c0-6.5-5.3-11.8-11.8-11.8c-6.5,0-11.8,5.3-11.8,11.8c0,6.5,5.3,11.8,11.8,11.8 C96.2,136.1,101.5,130.9,101.5,124.4L101.5,124.4L101.5,124.4z M101,50.6c0-0.3,0-0.6,0-0.9c0-6.5-5.3-11.8-11.8-11.8 c-6.5,0-11.8,5.3-11.8,11.8c0,0.3,0,0.6,0,0.9l5.9,49c0.4,3.1,3,5.5,6.2,5.5c3.1,0,5.7-2.3,6.2-5.3l5.2-48.7l0-0.3L101,50.6 L101,50.6L101,50.6z"/><rect id="_x3C_Slice_x3E__48_" width="176" height="176" class="st4"/></svg>