<?xml version="1.0" ?><!DOCTYPE svg  PUBLIC '-//W3C//DTD SVG 1.1//EN'  'http://www.w3.org/Graphics/SVG/1.1/DTD/svg11.dtd'><svg height="176px" style="enable-background:new 0 0 176 176;" version="1.1" viewBox="0 0 176 176" width="176px" xml:space="preserve" xmlns="http://www.w3.org/2000/svg" xmlns:xlink="http://www.w3.org/1999/xlink"><style type="text/css">
<![CDATA[
	.st0{fill:#EF3E42;}
	.st1{fill:#54B948;}
	.st2{fill:#FFC425;}
	.st3{fill:#FFFFFF;}
	.st4{fill:none;}
]]>
</style><defs/><path d="M165.4,10.5c0.3,0,0.6,0.3,0.6,0.6v151.8c0,0.3-0.3,0.6-0.6,0.6H13.6c-0.3,0-0.6-0.3-0.6-0.6V11.1c0-0.3,0.3-0.6,0.6-0.6  H165.4L165.4,10.5z"/><polygon class="st2" points="22.5,20.1 156.4,20.1 156.4,154 22.5,154 22.5,20.1 "/><path d="M101.5,124.4c0-6.5-5.3-11.8-11.8-11.8c-6.5,0-11.8,5.3-11.8,11.8c0,6.5,5.3,11.8,11.8,11.8  C96.2,136.1,101.5,130.9,101.5,124.4L101.5,124.4L101.5,124.4z M101,50.6c0-0.3,0-0.6,0-0.9c0-6.5-5.3-11.8-11.8-11.8  c-6.5,0-11.8,5.3-11.8,11.8c0,0.3,0,0.6,0,0.9l5.9,49c0.4,3.1,3,5.5,6.2,5.5c3.1,0,5.7-2.3,6.2-5.3l5.2-48.7l0-0.3L101,50.6  L101,50.6L101,50.6z"/><rect class="st4" height="176" id="_x3C_Slice_x3E__48_" width="176"/></svg>